<?xml version="1.0" encoding="UTF-8"?><svg id="Layer_2" xmlns="http://www.w3.org/2000/svg" viewBox="0 0 48.39 48.4"><g id="design"><path d="M24.19,0c13.36,0,24.19,10.84,24.19,24.2,0,13.36-10.84,24.2-24.19,24.2C10.82,48.4-.02,37.53,0,24.15,.02,10.82,10.86,0,24.19,0Zm-.33,31.87c.18,.13,.33,.22,.47,.33,1.82,1.34,3.63,2.69,5.46,4.02,1.08,.79,1.98,.44,2.3-.85,.01-.05,.02-.1,.03-.14,1.23-5.78,2.46-11.56,3.68-17.35,.16-.76,.3-1.54,.29-2.3,0-.74-.65-1.13-1.38-.98-.21,.04-.41,.11-.6,.19-5.24,2.02-10.48,4.04-15.72,6.07-2.53,.98-5.06,1.95-7.58,2.94-.45,.18-.97,.41-.93,1,.04,.56,.59,.69,1.03,.83,1.81,.58,3.63,1.13,5.43,1.7,.31,.1,.54,.07,.81-.1,1.82-1.16,3.65-2.31,5.48-3.46,2.61-1.64,5.22-3.29,7.84-4.93,.31-.2,.62-.42,1.14-.19-.18,.2-.31,.39-.47,.54-3.53,3.2-7.06,6.4-10.61,9.58-.28,.25-.4,.52-.42,.88-.05,.99-.13,1.98-.2,2.97-.06,.87-.11,1.74-.16,2.61,.52,.07,.83-.18,1.13-.47,.98-.95,1.97-1.89,2.99-2.88Z"/></g></svg>