<?xml version="1.0" encoding="UTF-8"?><svg id="Layer_2" xmlns="http://www.w3.org/2000/svg" viewBox="0 0 48.39 48.39"><g id="design"><path d="M24.19,0C10.83,0,0,10.83,0,24.19s10.83,24.19,24.19,24.19,24.19-10.83,24.19-24.19S37.56,0,24.19,0Zm13.48,15.93c0,.07,0,.23-.14,.42-.62,.83-1.28,1.57-2.11,2.19-.12,.09-.32,.18-.32,.35,0,4.36-1.11,8.71-4.29,11.87-4.04,4.02-10.11,5.11-15.5,3.62-1.04-.29-2.04-.69-3-1.2-.32-.17-.63-.35-.93-.55-.08-.06-.14-.12-.07-.16,.07-.03,.12-.04,.36,0,1.51,.15,3.06-.08,4.48-.57,.78-.27,2.47-.82,2.95-1.56,.01-.02,.02-.02,.03-.03-.2-.05-.39-.05-.59-.08-1.46-.42-3.42-1.15-4.32-3.62-.06-.14,0-.22,.15-.19,1.2,.09,1.64,.03,2.06-.06-.24-.04-.48-.12-.7-.21-1.84-.7-3.19-2.5-3.44-4.44-.03-.22-.05-.42-.03-.62,.01-.14,.08-.19,.2-.11,.95,.49,2.01,.61,2.1,.59-.24-.18-.46-.39-.67-.59-1.6-1.51-2.22-4.6-.94-6.51,.1-.16,.17-.16,.3-.01,2.92,3.33,6.53,4.89,10.87,5.53,.11,.02,.13,0,.11-.13-.11-.77-.13-1.51,.06-2.27,.19-.78,.57-1.53,1.07-2.15,.49-.61,1.11-1.11,1.8-1.47,.69-.36,1.45-.58,2.23-.63,.8-.05,1.61,.08,2.35,.38,.56,.23,1.07,.54,1.53,.94,.1,.08,.18,.18,.28,.28,.06,.06,.13,.08,.22,.06,1.11-.28,2.15-.67,3.16-1.21,.05-.02,.08-.03,.14-.01,.05,.03,.03,.09,0,.14-.18,.59-.5,1.14-.89,1.62-.25,.31-.88,1.09-1.31,1.16,.9-.15,1.83-.38,2.67-.76,.11-.05,.11-.07,.11,0v.02Z"/></g></svg>